<?xml version="1.0" encoding="UTF-8"?>
<svg id="Layer_2" data-name="Layer 2" xmlns="http://www.w3.org/2000/svg" viewBox="0 0 22.96 26.75">
  <defs>
    <style>
      .cls-1 {
        fill: #5ebd73;
      }

      .cls-2 {
        fill: #00a8cf;
      }
    </style>
  </defs>
  <g id="Layer_1-2" data-name="Layer 1">
    <g>
      <path class="cls-2" d="M5.08,10.95c-1.78.33-3.5-.24-4.4-1.5C-.1,8.37,0,7.13,0,7.03c.12-1.24.88-2.05,1.12-2.3.16-.17.31-.3.41-.38.86-.57,4.32-2.83,7.15-3.93.54-.21,1.3-.47,2.27-.41,1.35.08,2.31.72,2.65.96.39.27,1.25.88,1.79,2.04.56,1.2.44,2.3.38,2.81-.09.78-.33,1.4-.51,1.79l-5.43,12.38c-.1-.06-.2-.12-.3-.19-1.07-.75-1.53-1.78-1.79-2.36-.65-1.49-.59-2.82-.55-3.3.04-.5.15-1.65.89-2.85.31-.5.64-.86.89-1.11l1.36.98.64-6.43-5.98,2.04,1.36,1.11c-.05.06-.1.13-.15.19-.68.92-1,1.93-1.14,2.88Z"/>
      <path class="cls-1" d="M9.84,19.99c-.21.55-.42,1.11-.63,1.66-.03.08-.07.2-.11.35-.13.46-.33,1.18-.19,2.01.04.24.13.71.46,1.21.31.47.68.73.93.89.21.14.7.46,1.43.59.15.03.89.14,1.76-.14.29-.1.52-.21.69-.3l6.51-3.88s.1-.08.18-.14c.24-.2,1.04-.88,1.53-1.76.61-1.09.58-2.19.56-2.68-.02-.46-.08-1.67-.91-2.86-.6-.85-1.31-1.29-1.6-1.47-.16-.1-.74-.44-1.58-.65-.3-.08-.56-.12-.75-.14l-4.91-.36-2.58,5.89c.18.03.48.06.78.07,1.29.04,2.27-.29,2.6-.41.9-.34,1.48-.78,1.63-.89.08-.06.15-.12.19-.16l1.98,2.98.03.06s-.1.09-.17.15c-1.04.86-2.21,1.04-2.95,1.14-.67.09-1.79.24-3.12-.2-.7-.23-1.23-.55-1.59-.8l-.18-.14Z"/>
    </g>
  </g>
</svg>